<svg width="256" height="256" viewBox="0 0 256 256" fill="none" xmlns="http://www.w3.org/2000/svg">
<rect width="256" height="256" fill="white"/>
<path d="M54.8 119.5C53.2766 122.569 51.3606 125.426 49.1 128C51.3606 130.574 53.2766 133.431 54.8 136.5C60 147.2 60 159.8 60 172C60 197.9 61.8 204 80 204C83.1826 204 86.2348 205.264 88.4853 207.515C90.7357 209.765 92 212.817 92 216C92 219.183 90.7357 222.235 88.4853 224.485C86.2348 226.736 83.1826 228 80 228C60.9 228 47.8 221.1 41.2 207.5C36 196.8 36 184.2 36 172C36 146.1 34.2 140 16 140C12.8174 140 9.76516 138.736 7.51472 136.485C5.26428 134.235 4 131.183 4 128C4 124.817 5.26428 121.765 7.51472 119.515C9.76516 117.264 12.8174 116 16 116C34.2 116 36 109.9 36 84C36 71.8 36 59.2 41.2 48.5C47.8 34.9 60.9 28 80 28C83.1826 28 86.2348 29.2643 88.4853 31.5147C90.7357 33.7652 92 36.8174 92 40C92 43.1826 90.7357 46.2348 88.4853 48.4853C86.2348 50.7357 83.1826 52 80 52C61.8 52 60 58.1 60 84C60 96.2 60 108.8 54.8 119.5ZM240 116C221.8 116 220 109.9 220 84C220 71.8 220 59.2 214.8 48.5C208.2 34.9 195.1 28 176 28C172.817 28 169.765 29.2643 167.515 31.5147C165.264 33.7652 164 36.8174 164 40C164 43.1826 165.264 46.2348 167.515 48.4853C169.765 50.7357 172.817 52 176 52C194.2 52 196 58.1 196 84C196 96.2 196 108.8 201.2 119.5C202.723 122.569 204.639 125.426 206.9 128C204.639 130.574 202.723 133.431 201.2 136.5C196 147.2 196 159.8 196 172C196 197.9 194.2 204 176 204C172.817 204 169.765 205.264 167.515 207.515C165.264 209.765 164 212.817 164 216C164 219.183 165.264 222.235 167.515 224.485C169.765 226.736 172.817 228 176 228C195.1 228 208.2 221.1 214.8 207.5C220 196.8 220 184.2 220 172C220 146.1 221.8 140 240 140C243.183 140 246.235 138.736 248.485 136.485C250.736 134.235 252 131.183 252 128C252 124.817 250.736 121.765 248.485 119.515C246.235 117.264 243.183 116 240 116Z" fill="black"/>
</svg>
